HIERARCHY
ROOT Hips
{
	OFFSET -3.958830 18.904000 13.208200
	CHANNELS 6 Xposition Yposition Zposition Zrotation Yrotation Xrotation 
	JOINT LHipJoint
	{
		OFFSET 0.000000 0.000000 0.000000
		CHANNELS 3 Zrotation Yrotation Xrotation
		JOINT LeftUpLeg
		{
			OFFSET 1.800000 -1.400000 0.085000
			CHANNELS 3 Zrotation Yrotation Xrotation
			JOINT LeftLeg
			{
				OFFSET 2.215000 -6.000000 0.000000
				CHANNELS 3 Zrotation Yrotation Xrotation
				JOINT LeftFoot
				{
					OFFSET 2.500000 -6.900000 0.000000
					CHANNELS 3 Zrotation Yrotation Xrotation
					JOINT LeftToeBase
					{
						OFFSET 0.200000 -0.500000 1.950000
						CHANNELS 3 Zrotation Yrotation Xrotation
						End Site
						{
							OFFSET 0.000000 0.000000 0.000000
						}
					}
				}
			}
		}
	}
	JOINT RHipJoint
	{
		OFFSET 0.000000 0.000000 0.000000
		CHANNELS 3 Zrotation Yrotation Xrotation
		JOINT RightUpLeg
		{
			OFFSET -1.800000 -1.400000 0.085000
			CHANNELS 3 Zrotation Yrotation Xrotation
			JOINT RightLeg
			{
				OFFSET -2.215000 -6.000000 0.000000
				CHANNELS 3 Zrotation Yrotation Xrotation
				JOINT RightFoot
				{
					OFFSET -2.500000 -6.900000 0.000000
					CHANNELS 3 Zrotation Yrotation Xrotation
					JOINT RightToeBase
					{
						OFFSET -0.200000 -0.500000 1.950000
						CHANNELS 3 Zrotation Yrotation Xrotation
						End Site
						{
							OFFSET 0.000000 0.000000 0.000000
						}
					}
				}
			}
		}
	}
	JOINT LowerBack
	{
		OFFSET 0.000000 0.000000 0.000000
		CHANNELS 3 Zrotation Yrotation Xrotation
		JOINT Spine
		{
			OFFSET -0.087000 1.940000 -0.288900
			CHANNELS 3 Zrotation Yrotation Xrotation
			JOINT Spine1
			{
				OFFSET 0.000000 1.950000 0.060000
				CHANNELS 3 Zrotation Yrotation Xrotation
				JOINT Neck
				{
					OFFSET 0.000000 0.000000 0.000000
					CHANNELS 3 Zrotation Yrotation Xrotation
					JOINT Neck1
					{
						OFFSET 0.000000 1.600000 0.340000
						CHANNELS 3 Zrotation Yrotation Xrotation
						JOINT Head
						{
							OFFSET 0.000000 1.667000 -0.240000
							CHANNELS 3 Zrotation Yrotation Xrotation
							End Site
							{
								OFFSET 0.000000 0.000000 0.000000
							}
						}
					}
				}
				JOINT LeftShoulder
				{
					OFFSET 0.000000 0.000000 0.000000
					CHANNELS 3 Zrotation Yrotation Xrotation
					JOINT LeftArm
					{
						OFFSET 2.700000 1.550000 -0.730000
						CHANNELS 3 Zrotation Yrotation Xrotation
						JOINT LeftForeArm
						{
							OFFSET 5.450000 0.000000 0.000000
							CHANNELS 3 Zrotation Yrotation Xrotation
							JOINT LeftHand
							{
								OFFSET 3.450000 0.000000 0.000000
								CHANNELS 3 Zrotation Yrotation Xrotation
								JOINT LeftHandIndex1
								{
									OFFSET 0.750000 0.000000 0.000000
									CHANNELS 3 Zrotation Yrotation Xrotation
									End Site
									{
										OFFSET 0.000000 0.000000 0.000000
									}
								}
							}
						}
					}
				}
				JOINT RightShoulder
				{
					OFFSET 0.000000 0.000000 0.000000
					CHANNELS 3 Zrotation Yrotation Xrotation
					JOINT RightArm
					{
						OFFSET -2.700000 1.550000 -0.730000
						CHANNELS 3 Zrotation Yrotation Xrotation
						JOINT RightForeArm
						{
							OFFSET -5.450000 0.000000 0.000000
							CHANNELS 3 Zrotation Yrotation Xrotation
							JOINT RightHand
							{
								OFFSET -3.450000 0.000000 0.000000
								CHANNELS 3 Zrotation Yrotation Xrotation
								JOINT RightHandIndex1
								{
									OFFSET -0.750000 0.000000 0.000000
									CHANNELS 3 Zrotation Yrotation Xrotation
									End Site
									{
										OFFSET 0.000000 0.000000 0.000000
									}
								}
							}
						}
					}
				}
			}
		}
	}
}
MOTION
Frames: 12
Frame Time: 0.016667
0.259130 17.977800 0.701490 -3.818536 0.045379 -1.335635 -15.226029 13.863901 2.797757 1.139817 0.102888 7.053323 -2.208123 6.040285 16.259092 -0.589785 6.027945 2.791372 0.149220 -0.000250 -0.206390 18.403418 -9.456008 3.514703 11.527880 3.799149 -41.166455 -2.914486 -6.144284 37.910037 -0.655392 -4.674017 2.471572 0.143370 0.901460 0.624570 -3.693331 -4.688274 -7.542552 9.945640 -13.127796 27.474858 -5.651665 -11.448193 9.842500 -3.529708 -4.397333 -8.366699 -10.901779 2.539676 24.609070 -0.499430 -0.373330 -25.152560 -2.770082 -11.264183 -1.336022 -0.950614 -35.040528 -5.113914 76.018900 -39.169777 -32.688387 -4.204397 2.283815 0.874030 0.345390 0.163590 0.417610 9.894873 6.300109 6.867739 40.068011 -7.406126 -10.193313 -15.530288 20.154109 -2.261161 1.858333 -1.161140 -0.473670 0.662010 0.352750 0.097340 
0.268480 17.787590 0.728940 -2.650971 -0.702719 -1.939151 -15.204905 13.736978 2.899314 -0.591259 -0.188751 8.890873 -1.945580 6.342508 20.556221 -0.481714 6.428655 2.597159 0.232540 0.144360 -0.224010 18.427201 -9.507046 3.499621 10.311956 3.747526 -41.130915 -0.957932 -6.397880 36.248650 -0.621284 -4.457506 2.536239 0.224020 0.850720 0.609210 -3.756012 -4.437431 -7.564618 8.952036 -12.917969 28.004287 -5.740884 -11.476343 9.804146 -4.314703 -4.918778 -7.557255 -11.877141 1.691869 24.751256 1.077280 -1.918370 -26.772630 -1.811541 -8.594261 -2.081704 5.028078 -34.300174 -6.049644 76.547568 -35.907284 -29.954242 -4.159129 2.415382 0.856110 0.306220 0.186450 0.443340 10.508983 4.447208 6.077508 35.975257 -8.109342 -10.658723 -17.972449 24.788394 -3.132786 1.788138 -1.260526 -0.426020 0.649480 0.317420 0.128540 
0.269650 17.580800 0.753670 -1.683635 -4.268590 -2.456525 -15.224913 13.497803 3.056389 -2.575376 -0.568360 10.783691 -3.477414 7.253770 24.661905 -0.319577 7.061866 2.357868 0.285560 0.236440 -0.210900 18.450864 -9.318469 3.661531 10.926299 4.818491 -42.074020 -1.202511 -6.197437 38.195525 -0.695309 -4.672287 2.466688 0.280530 0.819850 0.555140 -3.742638 -4.332289 -7.729442 6.676858 -12.768276 28.707231 -5.625161 -11.646720 9.712237 -4.883730 -6.205141 -7.404074 -14.500411 3.354328 25.673395 2.720030 -1.701260 -28.738140 -1.302755 -7.045750 -2.233132 12.653444 -28.557409 -7.602078 75.381104 -31.256409 -25.202631 -4.124008 2.472656 0.883400 0.249990 0.216270 0.455320 11.320514 4.548267 5.798788 28.139307 -5.558928 -8.416674 -15.646402 23.289419 -2.524478 1.814836 -1.195657 -0.429300 0.706500 0.291200 0.138410 
0.260600 17.356590 0.763640 -1.363901 -6.461701 -3.179800 -15.283369 13.328656 3.134682 -3.478896 -1.185978 12.290648 -4.783011 8.154853 28.224867 -0.205499 7.682767 2.114823 0.398680 0.350680 -0.107720 18.444200 -9.030647 3.873464 11.828522 6.159279 -43.352423 -1.562695 -6.280210 41.806130 -0.875852 -5.188732 2.255035 0.347400 0.737660 0.541280 -3.652739 -4.457969 -7.899387 4.866431 -12.888689 29.779751 -4.997267 -12.087113 9.557287 -5.212751 -7.393451 -7.056613 -16.930659 4.672438 26.065310 3.158120 -1.264260 -32.136450 -0.754666 -5.607498 -2.668974 19.053026 -23.731654 -8.296508 71.524259 -26.925818 -20.062842 -4.065469 2.538156 0.965260 0.163110 0.292350 0.463100 11.672329 4.519222 5.456305 20.829028 -3.492726 -7.032598 -13.150339 24.293373 -2.074213 1.803465 -1.179436 -0.422240 0.734990 0.237100 0.117310 
0.264670 17.118140 0.768060 -1.436062 -8.496253 -4.295505 -15.334669 13.105471 3.178593 -3.825782 -1.585010 14.184779 -6.638995 9.327596 30.528351 -0.098601 8.311525 1.886312 0.466560 0.412980 -0.053340 18.452352 -8.710060 4.154720 12.620299 7.915657 -44.880863 -1.594721 -6.778041 47.145403 -1.114767 -6.098129 1.930220 0.394320 0.702010 0.524700 -3.606685 -4.500959 -8.103122 3.688624 -12.756353 31.766149 -4.200249 -12.203017 9.025684 -5.606108 -8.461247 -6.749694 -18.918917 5.251792 25.703308 4.103810 -1.494680 -34.612970 -0.296399 -4.354313 -3.096677 24.327950 -19.649519 -8.306040 67.933256 -23.766608 -16.401735 -4.042293 2.564024 1.030990 0.102220 0.330120 0.463150 12.217412 4.465801 5.222353 13.138102 -2.917600 -5.695507 -10.286135 24.771734 -1.404652 1.782939 -1.174384 -0.432940 0.779380 0.225220 0.103610 
0.260300 16.890960 0.740450 -1.345153 -9.665504 -5.930125 -15.438961 12.997656 3.218434 -3.878202 -2.088348 15.758917 -8.281877 10.592502 33.166050 0.050852 8.942161 1.671629 0.525990 0.467230 0.014930 18.400144 -8.326376 4.450312 13.084164 9.722140 -46.448408 -1.874348 -7.237914 52.949392 -1.382684 -7.101165 1.611148 0.421310 0.644510 0.491000 -3.390377 -4.817502 -8.342566 1.534886 -12.028771 35.089325 -2.443526 -12.105221 8.304381 -5.733933 -9.288464 -6.590069 -20.584315 5.710070 25.613148 4.617350 -1.431270 -37.077010 -0.762729 -3.941669 -3.542267 30.501357 -15.549988 -8.191091 63.702448 -21.417895 -13.224606 -3.996270 2.551617 1.097520 0.029750 0.379470 0.466190 13.202162 5.276755 5.324321 5.855950 -4.212083 -5.036398 -9.127872 26.953471 -1.106325 1.778113 -1.231812 -0.441640 0.812510 0.184420 0.087180 
0.246940 16.702990 0.721260 -0.968364 -11.007424 -7.782893 -15.553268 12.937188 3.266565 -4.001746 -2.445024 17.050815 -9.904166 12.049723 35.979948 0.263026 9.605995 1.471681 0.514660 0.460390 -0.005740 18.336716 -7.943308 4.704296 13.591693 11.465566 -47.149702 -2.863999 -7.122423 57.844340 -1.592628 -7.912614 1.392171 0.401240 0.636750 0.458020 -3.143697 -5.215458 -8.554160 -0.869556 -10.818963 38.225814 -0.731685 -11.642520 7.602029 -5.857980 -10.518999 -6.857554 -23.444755 6.176157 25.637653 5.758260 -1.886070 -38.325050 -1.119172 -3.894400 -3.528169 34.170086 -11.906555 -7.721794 60.968512 -19.813014 -11.291740 -3.972657 2.519558 1.127450 -0.017240 0.398130 0.476240 13.930121 6.812451 5.672799 0.401887 -7.414011 -5.042723 -8.924981 31.942838 -1.206997 1.785392 -1.337291 -0.446180 0.844890 0.177870 0.105370 
0.242110 16.564710 0.723840 -1.006314 -11.956701 -9.146405 -15.625219 12.881495 3.279687 -4.016011 -2.765422 17.667876 -10.989256 13.197402 38.230242 0.456886 10.074437 1.322387 0.489910 0.430140 -0.033820 18.304714 -7.658908 4.901393 14.008871 12.874782 -47.459214 -3.276169 -7.233468 61.347123 -1.760421 -8.503580 1.228781 0.348530 0.605490 0.455900 -3.005795 -5.466302 -8.704216 -1.759469 -10.095746 40.178021 0.001604 -11.226610 7.363066 -5.503790 -11.468341 -7.247415 -26.163330 6.562610 26.430118 6.914030 -2.300890 -39.524000 -2.286117 -4.432800 -3.493504 36.856641 -9.312399 -7.404570 60.150056 -19.425599 -10.518751 -3.932975 2.519844 1.147160 -0.070770 0.424820 0.470300 14.368328 8.442722 6.262000 -2.279936 -10.861287 -5.442206 -11.485393 37.166487 -2.171103 1.846277 -1.410781 -0.416070 0.823410 0.183770 0.122880 
0.231730 16.484650 0.725380 -0.953181 -13.361823 -10.056439 -15.664095 12.802519 3.280747 -4.393041 -2.700901 17.735305 -11.616353 13.907697 39.382384 0.576787 10.333954 1.256730 0.407170 0.333000 -0.106150 18.299688 -7.455050 5.068887 14.588660 14.160219 -47.070235 -3.146824 -7.348877 63.238542 -1.842592 -8.804943 1.170787 0.271740 0.629910 0.438630 -2.960711 -5.547113 -8.818038 -2.190352 -9.368737 41.009041 0.062453 -10.607752 7.423865 -5.239161 -12.133848 -7.831720 -28.885480 7.481555 27.780038 8.894460 -2.528200 -39.912400 -3.041310 -5.097320 -3.211759 37.222207 -7.729679 -7.211506 61.638039 -20.087690 -10.947832 -3.931630 2.469360 1.162140 -0.094000 0.412320 0.451160 14.504897 9.804249 6.853399 -2.154362 -14.172941 -6.605369 -14.521167 43.831456 -3.853883 1.866630 -1.388447 -0.422630 0.841870 0.239030 0.136000 
0.228730 16.467560 0.731820 -1.272909 -14.471846 -10.564937 -15.668959 12.771406 3.265721 -4.611126 -2.491006 17.552767 -11.449722 14.058096 39.827035 0.609294 10.427692 1.260697 0.277070 0.179660 -0.195390 18.305076 -7.386162 5.155733 15.021421 14.873906 -46.165755 -2.476450 -7.673837 63.402328 -1.830206 -8.859417 1.201668 0.183930 0.704750 0.416520 -2.971300 -5.513436 -8.879072 -1.998876 -8.839562 41.466246 0.086890 -9.978616 7.511849 -4.889289 -11.956220 -8.508708 -29.345234 8.195072 29.499069 9.697470 -2.268250 -38.402850 -3.227632 -6.111238 -2.649289 34.994447 -6.918045 -7.417095 66.320367 -21.471352 -12.835237 -3.986373 2.380958 1.168770 -0.059310 0.362720 0.427150 13.934871 10.812961 7.442783 0.130050 -15.224262 -7.898694 -16.214838 47.140600 -4.892455 1.821678 -1.273908 -0.476810 0.877730 0.315460 0.132380 
0.234020 16.507080 0.743410 -2.015357 -15.478061 -11.106809 -15.675311 12.829344 3.255712 -4.259917 -1.962253 18.093782 -11.171139 13.889778 38.691365 0.590240 10.351173 1.315402 0.194850 0.060320 -0.212480 18.288142 -7.403273 5.151168 15.404456 15.048057 -44.271474 -1.431573 -8.122766 62.296716 -1.779815 -8.751020 1.257831 0.121300 0.760330 0.430260 -2.931578 -5.516312 -8.896697 -2.011962 -8.065770 42.249628 0.702231 -9.184302 7.703914 -4.681423 -10.828297 -8.811832 -26.453569 8.203214 30.732677 8.795680 -1.220150 -35.614560 -3.052539 -7.200204 -2.058106 31.304420 -6.826111 -8.022830 72.897722 -23.407065 -16.178269 -4.058589 2.350026 1.153610 0.003780 0.317330 0.402980 13.254739 11.366134 7.678410 2.424991 -13.786761 -8.599526 -14.611570 47.293811 -4.364809 1.763728 -1.214664 -0.512950 0.866230 0.355960 0.107320 
0.247060 16.604720 0.756120 -2.893979 -15.969741 -11.420982 -15.646119 12.884613 3.244036 -3.666383 -1.121265 19.052947 -10.415922 13.220721 36.232476 0.526023 9.996031 1.407839 0.134500 0.021830 -0.234340 18.288033 -7.566619 5.074601 15.725766 14.682808 -41.953342 -0.555713 -8.298767 59.812989 -1.677820 -8.396580 1.368186 0.089520 0.755540 0.472350 -2.957502 -5.302574 -8.864996 -1.325852 -7.394726 42.566645 0.505167 -8.202211 8.990924 -4.259928 -8.639208 -8.789867 -21.142134 6.824513 32.520091 6.157190 -0.040080 -33.810480 -2.396398 -8.120050 -1.728975 26.765722 -8.218484 -8.960147 80.706213 -26.235449 -21.583059 -4.100988 2.354551 1.100270 0.072500 0.309800 0.360490 11.522220 10.997502 7.701256 7.955863 -10.024489 -9.440566 -12.781719 44.306008 -3.365845 1.686651 -1.112067 -0.487860 0.801570 0.388950 0.090040 
